HIERARCHY
ROOT Hips
{
	OFFSET 0.000000 0.000000 0.000000
	CHANNELS 6 Xposition Yposition Zposition Xrotation Yrotation Zrotation
	JOINT LeftUpLeg_virtual
	{
		OFFSET 0.000000 0.000000 0.000000
		CHANNELS 3 Xrotation Yrotation Zrotation
		JOINT LeftUpLeg
		{
			OFFSET 13.026900 -6.336304 -1.092800
			CHANNELS 3 Xrotation Yrotation Zrotation
			JOINT LeftLeg
			{
				OFFSET 0.524474 -46.096886 9.782700
				CHANNELS 3 Xrotation Yrotation Zrotation
				JOINT LeftFoot
				{
					OFFSET -0.524474 -53.427422 -12.948200
					CHANNELS 3 Xrotation Yrotation Zrotation
					JOINT LeftToeBase
					{
						OFFSET 0.192200 -14.009700 16.364100
						CHANNELS 3 Xrotation Yrotation Zrotation
						JOINT LeftToe_End
						{
							OFFSET -1.784700 -0.561700 9.474800
							CHANNELS 3 Xrotation Yrotation Zrotation
							End Site
							{
								OFFSET 0 0 0
							}
						}
					}
				}
			}
		}
	}
	JOINT RightUpLeg_virtual
	{
		OFFSET 0.000000 0.000000 0.000000
		CHANNELS 3 Xrotation Yrotation Zrotation
		JOINT RightUpLeg
		{
			OFFSET -12.883000 -6.336304 -1.092800
			CHANNELS 3 Xrotation Yrotation Zrotation
			JOINT RightLeg
			{
				OFFSET -0.524587 -46.096825 9.782800
				CHANNELS 3 Xrotation Yrotation Zrotation
				JOINT RightFoot
				{
					OFFSET 0.524587 -53.427383 -12.948300
					CHANNELS 3 Xrotation Yrotation Zrotation
					JOINT RightToeBase
					{
						OFFSET -0.192200 -14.009700 16.364100
						CHANNELS 3 Xrotation Yrotation Zrotation
						JOINT RightToe_End
						{
							OFFSET 1.784700 -0.561700 9.474800
							CHANNELS 3 Xrotation Yrotation Zrotation
							End Site
							{
								OFFSET 0 0 0
							}
						}
					}
				}
			}
		}
	}
	JOINT Spine_virtual
	{
		OFFSET 0.000000 0.000000 0.000000
		CHANNELS 3 Xrotation Yrotation Zrotation
		JOINT Spine
		{
			OFFSET 0.072000 7.257294 -0.789700
			CHANNELS 3 Xrotation Yrotation Zrotation
			JOINT Spine1
			{
				OFFSET 0.000000 12.508769 -0.658067
				CHANNELS 3 Xrotation Yrotation Zrotation
				JOINT Spine1_split
				{
					OFFSET 0.000000 12.508769 -0.658067
					CHANNELS 3 Xrotation Yrotation Zrotation
					JOINT Spine2
					{
						OFFSET 0.000000 12.508769 -0.658067
						CHANNELS 3 Xrotation Yrotation Zrotation
						JOINT Neck_virtual
						{
							OFFSET 0.000000 0.000000 0.000000
							CHANNELS 3 Xrotation Yrotation Zrotation
							JOINT Neck
							{
								OFFSET 0.000000 14.033295 7.520400
								CHANNELS 3 Xrotation Yrotation Zrotation
								JOINT Head
								{
									OFFSET 0.000000 8.198502 5.703100
									CHANNELS 3 Xrotation Yrotation Zrotation
									JOINT HeadTop_End
									{
										OFFSET 0.000000 17.760803 13.332701
										CHANNELS 3 Xrotation Yrotation Zrotation
										End Site
										{
											OFFSET 0 0 0
										}
									}
								}
							}
						}
						JOINT LeftShoulder_virtual
						{
							OFFSET 0.000000 0.000000 0.000000
							CHANNELS 3 Xrotation Yrotation Zrotation
							JOINT LeftShoulder
							{
								OFFSET 6.292450 5.785301 -0.669000
								CHANNELS 3 Xrotation Yrotation Zrotation
								JOINT LeftShoulder_split
								{
									OFFSET 6.292450 5.785301 -0.669000
									CHANNELS 3 Xrotation Yrotation Zrotation
									JOINT LeftArm
									{
										OFFSET 13.907140 -6.093903 1.965100
										CHANNELS 3 Xrotation Yrotation Zrotation
										JOINT LeftForeArm
										{
											OFFSET 34.140198 0.000000 0.000000
											CHANNELS 3 Xrotation Yrotation Zrotation
											JOINT LeftHand
											{
												OFFSET 40.960209 0.000000 0.000000
												CHANNELS 3 Xrotation Yrotation Zrotation
												End Site
												{
													OFFSET 0 0 0
												}
											}
										}
									}
								}
							}
						}
						JOINT RightShoulder_virtual
						{
							OFFSET 0.000000 0.000000 0.000000
							CHANNELS 3 Xrotation Yrotation Zrotation
							JOINT RightShoulder
							{
								OFFSET -6.292450 5.785301 -0.669000
								CHANNELS 3 Xrotation Yrotation Zrotation
								JOINT RightShoulder_split
								{
									OFFSET -6.292450 5.785301 -0.669000
									CHANNELS 3 Xrotation Yrotation Zrotation
									JOINT RightArm
									{
										OFFSET -13.907140 -6.093903 1.965100
										CHANNELS 3 Xrotation Yrotation Zrotation
										JOINT RightForeArm
										{
											OFFSET -34.140198 0.000000 0.000000
											CHANNELS 3 Xrotation Yrotation Zrotation
											JOINT RightHand
											{
												OFFSET -40.960209 0.000000 0.000000
												CHANNELS 3 Xrotation Yrotation Zrotation
												End Site
												{
													OFFSET 0 0 0
												}
											}
										}
									}
								}
							}
						}
					}
				}
			}
		}
	}
}
MOTION
Frames: 11
Frame Time: 0.03333333
3.628758 85.685898 -58.054935 0.000000 0.000000 0.000000 34.766547 -79.028847 31.409028 -50.156965 -6.957129 25.053533 72.673308 11.850002 0.572472 -10.692725 0.962387 -29.208570 -6.247671 -2.105227 3.327147 0.000000 0.000000 0.000000 34.296603 -78.181166 31.581169 -52.632987 0.092657 -11.372513 77.827417 15.286445 -6.175052 -22.226175 -2.588996 6.361184 -1.831146 1.072294 0.740279 0.000000 0.000000 0.000000 44.456544 -82.925258 42.279909 5.172260 11.221847 -4.203567 10.132779 18.887783 -6.269229 0.694796 -5.617002 1.911221 0.000000 0.000000 0.000000 12.664553 18.252251 -7.803960 -0.893090 2.067496 3.294088 4.551098 2.667148 -6.449207 0.000000 0.000000 0.000000 10.300457 18.519220 -7.104402 4.386370 -4.140532 0.225944 1.870048 3.120804 0.268828 -75.646572 -30.496439 -61.275102 54.585680 -75.645001 53.545647 0.000000 0.000000 0.000000 9.373735 18.628419 -6.617847 5.374040 7.950507 -2.174474 -2.153289 6.283324 -3.518790 -48.459697 -4.279579 29.492098 -15.553787 43.893121 1.808816 0.000000 0.000000 0.000000 
4.613004 84.609619 -59.040516 0.000000 0.000000 0.000000 43.658651 -75.510706 39.985252 -55.305384 -7.886390 25.078783 73.558713 11.032234 0.195268 -10.427510 -0.277961 -28.179018 -6.218349 -2.332301 3.614073 0.000000 0.000000 0.000000 40.676116 -75.136712 38.181625 -56.819015 -0.526855 -12.060163 78.832186 13.761694 -4.554436 -23.181688 -2.654604 5.111263 -0.154527 0.894244 0.449039 0.000000 0.000000 0.000000 49.290518 -79.031217 46.832920 5.711832 11.065695 -4.247011 10.849151 18.181660 -6.478120 0.904688 -6.286303 1.870575 0.000000 0.000000 0.000000 12.597878 17.700715 -7.596687 -1.021428 4.380731 3.799229 2.026793 5.287319 -10.224347 0.000000 0.000000 0.000000 10.673828 17.867208 -7.423659 3.585450 -4.456435 -2.248469 0.085664 2.545326 -0.157382 -61.378614 -21.680194 -55.945315 50.912845 -71.519594 48.525024 0.000000 0.000000 0.000000 9.793390 18.257581 -6.534170 4.731974 8.005897 0.802470 -1.558022 6.459141 -4.237528 -42.666512 -10.376923 30.128490 -15.123646 43.042124 5.138219 0.000000 0.000000 0.000000 
5.376448 84.184891 -59.523853 0.000000 0.000000 0.000000 48.684861 -72.183154 45.248593 -59.670909 -8.182982 24.636718 73.525969 9.918871 -0.018260 -9.845999 -1.302292 -26.302633 -6.018389 -2.571756 3.559774 0.000000 0.000000 0.000000 43.564442 -72.031803 41.788115 -60.237658 -0.496687 -13.664078 79.136122 12.659453 -3.381774 -22.766684 -2.293101 5.676489 -0.073001 0.691103 0.092540 0.000000 0.000000 0.000000 50.271425 -75.214822 47.848760 6.084769 10.838961 -4.012807 11.452948 17.455660 -6.479388 1.259151 -6.389445 1.618714 0.000000 0.000000 0.000000 12.357400 17.070219 -7.178060 -1.295638 6.453888 4.116022 0.396370 7.873156 -13.790210 0.000000 0.000000 0.000000 10.924997 17.184122 -7.489320 3.042973 -4.071636 -3.998117 -0.904660 1.947962 -0.515833 -47.544834 -12.206032 -52.705216 40.407771 -67.628251 37.793759 0.000000 0.000000 0.000000 10.132701 17.761514 -6.305265 4.258497 8.134081 3.434440 -0.736089 6.991657 -4.394201 -35.363619 -17.612729 32.406294 -14.679065 43.219989 7.599721 0.000000 0.000000 0.000000 
5.956174 84.099770 -60.085415 0.000000 0.000000 0.000000 49.901260 -69.168650 47.213925 -63.243201 -8.083584 23.623876 73.142563 8.541209 -0.009809 -8.769970 -1.886356 -24.497944 -5.441781 -2.725689 3.207683 0.000000 0.000000 0.000000 44.439540 -69.314440 43.647552 -62.507781 0.423382 -15.469219 78.709591 12.013105 -2.942721 -21.986690 -1.612629 7.756102 -0.819045 0.472181 -0.176928 0.000000 0.000000 0.000000 49.657671 -71.948741 47.525757 6.201223 10.536557 -3.567698 11.922006 16.731090 -6.346493 1.400529 -5.880761 1.544776 0.000000 0.000000 0.000000 11.996555 16.363216 -6.676813 -1.715972 8.172245 4.205831 -0.366153 10.006026 -16.818687 0.000000 0.000000 0.000000 11.101463 16.457021 -7.338227 2.696088 -3.406082 -4.941044 -0.833537 1.217930 -0.765123 -34.729965 -3.832795 -52.824021 28.532958 -63.981114 26.342018 0.000000 0.000000 0.000000 10.479516 17.177986 -6.008883 3.868893 8.628306 5.935324 -0.025739 7.321402 -4.163119 -26.182847 -24.539608 36.846579 -14.107256 43.137757 9.034879 0.000000 0.000000 0.000000 
6.239654 84.223663 -60.168911 0.000000 0.000000 0.000000 47.650077 -66.549866 46.075650 -65.720278 -7.670551 22.141791 72.225958 7.149885 0.147083 -7.145475 -1.823601 -23.517765 -4.569434 -2.719259 2.628233 0.000000 0.000000 0.000000 44.105349 -67.009094 44.217070 -62.821471 1.999878 -16.886885 77.241810 11.333979 -2.966169 -21.817533 -1.049187 9.735302 -0.952217 0.275891 -0.228060 0.000000 0.000000 0.000000 47.262997 -69.319412 45.691565 6.092843 10.121382 -3.077540 12.253489 15.978106 -6.179375 1.332171 -4.717300 1.459336 0.000000 0.000000 0.000000 11.659637 15.584251 -6.200968 -2.284136 9.505773 4.087802 -0.464320 11.522317 -19.083620 0.000000 0.000000 0.000000 11.261749 15.678221 -7.097841 2.461029 -2.807583 -5.177062 -0.114912 0.726523 -0.907640 -23.786760 2.419301 -56.117811 17.978750 -60.165292 16.348782 0.000000 0.000000 0.000000 10.878345 16.509640 -5.706397 3.453054 9.480010 8.322745 0.519718 7.554736 -3.705229 -16.353980 -29.745368 42.689212 -13.434441 41.971700 9.499367 0.000000 0.000000 0.000000 
6.268142 84.697113 -59.949009 0.000000 0.000000 0.000000 43.212988 -64.290255 42.881721 -66.814188 -6.836985 20.233192 70.511390 6.025221 0.358255 -5.269046 -1.176242 -23.159602 -3.440670 -2.583027 1.902355 0.000000 0.000000 0.000000 42.242319 -65.023988 43.111307 -61.068503 3.568635 -17.829101 74.696021 10.261291 -3.005285 -22.380288 -0.993699 10.652339 0.033002 0.150270 -0.062983 0.000000 0.000000 0.000000 43.665751 -67.224129 42.734298 5.859366 9.632971 -2.669561 12.480763 15.227169 -6.066101 1.283437 -3.576035 1.620011 0.000000 0.000000 0.000000 11.368034 14.795148 -5.817319 -2.899845 10.475313 3.757270 -0.087432 12.454456 -20.539545 0.000000 0.000000 0.000000 11.410772 14.871892 -6.847242 2.300110 -2.377987 -4.942837 0.320215 0.263355 -1.125691 -15.413162 6.401803 -61.184514 10.312723 -55.983079 9.019414 0.000000 0.000000 0.000000 11.251849 15.792577 -5.462695 2.937592 10.530589 10.529892 0.834287 7.231107 -3.093147 -7.996044 -32.645009 48.448034 -12.745491 39.584539 9.198376 0.000000 0.000000 0.000000 
5.909915 85.645065 -59.359875 0.000000 0.000000 0.000000 37.714505 -62.402616 38.595592 -66.244878 -5.529412 18.269212 67.980272 5.284565 0.568731 -3.533348 -0.256993 -22.782572 -2.298945 -2.410563 1.189764 0.000000 0.000000 0.000000 39.070854 -63.409202 40.494399 -57.745472 4.720273 -18.459169 71.333621 8.826981 -2.897083 -23.090873 -1.580766 10.697696 1.191310 0.119056 0.233225 0.000000 0.000000 0.000000 38.707290 -65.364193 38.477922 5.558852 9.104518 -2.433270 12.621391 14.474923 -6.013264 1.330678 -2.764194 1.761376 0.000000 0.000000 0.000000 11.162867 14.066086 -5.574882 -3.460845 11.052357 3.260137 0.440819 12.925635 -21.150929 0.000000 0.000000 0.000000 11.582860 14.075770 -6.622867 2.144912 -2.090905 -4.572178 0.324740 -0.074004 -1.480412 -9.948615 8.874687 -66.493094 6.152601 -51.923457 4.743033 0.000000 0.000000 0.000000 11.529971 15.094404 -5.259325 2.372831 11.428929 12.365305 0.986198 6.457262 -2.370321 -2.548432 -33.793413 52.831865 -12.240648 36.772034 8.586557 0.000000 0.000000 0.000000 
5.248253 87.193108 -58.490322 0.000000 0.000000 0.000000 32.019039 -61.045458 33.934159 -63.912887 -3.743165 16.581770 64.752174 4.849032 0.718684 -2.456916 0.699858 -21.904342 -1.379839 -2.291496 0.573108 0.000000 0.000000 0.000000 34.674876 -62.028561 36.499810 -53.348330 5.072687 -19.112367 67.491647 7.190436 -2.625550 -23.224585 -2.581860 10.555357 1.577413 0.181209 0.484581 0.000000 0.000000 0.000000 33.199709 -63.597483 33.608468 5.300973 8.588692 -2.397868 12.677406 13.764324 -5.994315 1.389561 -2.485952 1.804542 0.000000 0.000000 0.000000 11.059713 13.435614 -5.436504 -3.868971 11.298516 2.659722 0.823197 13.216423 -21.018251 0.000000 0.000000 0.000000 11.729137 13.338321 -6.425711 2.008133 -1.729938 -4.405947 -0.351499 -0.042345 -2.279355 -7.214529 10.526298 -70.755774 4.860909 -48.034388 2.924922 0.000000 0.000000 0.000000 11.653400 14.419743 -5.093913 1.818418 11.947910 13.642664 1.436240 5.435654 -1.584091 -0.064805 -33.877257 55.580340 -11.906717 34.501328 7.950034 0.000000 0.000000 0.000000 
4.292517 89.291115 -57.670704 0.000000 0.000000 0.000000 26.566723 -60.076186 29.134510 -60.193159 -1.671352 15.328710 61.103405 4.471309 0.783395 -2.352541 1.466688 -20.046513 -0.854463 -2.300442 0.132376 0.000000 0.000000 0.000000 29.333135 -60.855469 31.464728 -48.463184 4.491564 -19.939603 63.447581 5.641544 -2.226178 -22.579347 -3.643496 10.802078 1.227451 0.303505 0.615637 0.000000 0.000000 0.000000 27.655535 -61.881487 28.513525 5.053479 8.120002 -2.496763 12.631754 13.127405 -5.917420 1.393919 -2.548910 1.728294 0.000000 0.000000 0.000000 10.996939 12.909900 -5.340662 -4.097099 11.140909 2.060735 0.895006 13.499466 -20.278101 0.000000 0.000000 0.000000 11.788739 12.706175 -6.169349 1.902848 -1.074072 -4.562839 -0.944225 0.161936 -2.945961 -6.372287 11.432805 -73.169289 5.275300 -44.135094 2.589293 0.000000 0.000000 0.000000 11.588245 13.780019 -4.937828 1.349402 12.051825 14.322078 2.224835 4.249513 -0.765116 0.653933 -33.400400 57.325914 -11.543721 33.326276 7.405812 0.000000 0.000000 0.000000 
3.150612 91.788635 -56.853924 0.000000 0.000000 0.000000 21.242718 -59.232302 24.030748 -55.518906 0.425347 14.641523 57.295394 3.868601 0.794037 -2.919536 1.875810 -17.503710 -0.755148 -2.424058 -0.115446 0.000000 0.000000 0.000000 23.520202 -59.644203 25.777615 -43.167233 3.131630 -20.748851 58.901885 4.300286 -1.757040 -21.720881 -4.484440 11.370510 0.900038 0.443680 0.643282 0.000000 0.000000 0.000000 22.316753 -60.253053 23.347586 4.797835 7.690767 -2.629707 12.473635 12.548380 -5.698399 1.190161 -2.469557 1.490033 0.000000 0.000000 0.000000 10.971395 12.440672 -5.209675 -4.184821 10.652010 1.601030 0.549294 13.883089 -19.049860 0.000000 0.000000 0.000000 11.731885 12.169997 -5.796005 1.832019 -0.201512 -4.996936 -1.418653 0.425983 -3.222510 -6.533198 11.427291 -73.702809 6.390075 -40.505826 2.915189 0.000000 0.000000 0.000000 11.395461 13.169285 -4.738457 1.003884 11.844785 14.468340 3.111165 3.222098 -0.046954 1.051894 -32.742021 58.747454 -11.022539 33.244409 6.973856 0.000000 0.000000 0.000000 
1.966799 94.490547 -56.036114 0.000000 0.000000 0.000000 16.173560 -58.263897 18.723323 -50.511834 2.119054 14.405383 53.476809 2.728646 0.804517 -3.555069 1.997051 -15.119510 -0.896356 -2.578820 -0.222771 0.000000 0.000000 0.000000 17.975615 -58.282366 20.038066 -37.409875 1.085608 -21.282357 53.803514 2.846972 -1.134219 -20.975596 -5.087981 11.808460 0.946801 0.564240 0.627203 0.000000 0.000000 0.000000 17.522324 -58.829697 18.388348 4.531439 7.281452 -2.729425 12.238522 12.014886 -5.324931 0.892973 -2.470955 1.389794 0.000000 0.000000 0.000000 10.994461 11.962301 -4.964448 -4.180384 9.849369 1.356843 -0.126268 14.306040 -17.434582 0.000000 0.000000 0.000000 11.511906 11.695909 -5.280047 1.812863 0.764515 -5.586082 -1.873018 0.527897 -3.390606 -7.014347 10.313671 -72.691996 7.461480 -37.516272 3.312259 0.000000 0.000000 0.000000 11.110361 12.538566 -4.473773 0.732448 11.545929 14.206577 3.619557 2.325051 0.502092 1.899185 -32.062950 60.128915 -10.313385 34.038282 6.632071 0.000000 0.000000 0.000000 
